<svg xmlns="http://www.w3.org/2000/svg" width="208" height="51" fill="none"><g fill="#000" clip-path="url(#a)"><path d="M34.3 27.3q-.45 1.35-1.2 2.7c-.5.8-1.3 1.4-2.1 1.8-1 .5-2 .7-3.1.7-.5 0-1 0-1.5-.1s-1-.2-1.4-.4c-.5-.2-.9-.5-1.3-.8s-.7-.7-1-1.1h-.1V38H19V16.3h3.3v2.1h.1c.4-.8 1.1-1.5 2-1.9s1.9-.6 2.9-.6q1.65 0 3.3.6c.9.4 1.7 1 2.3 1.8S34 20 34.2 21c.3 1.1.4 2.2.4 3.3q.15 1.5-.3 3M25.5 0C11.4 0 0 11.4 0 25.5S11.4 51 25.5 51 51 39.6 51 25.5 39.6 0 25.5 0"/><path d="M30.1 20.4c-.4-.5-.8-.9-1.3-1.2-.6-.3-1.2-.5-1.9-.5-1.3-.1-2.6.5-3.4 1.5-.8 1.2-1.2 2.7-1.1 4.1 0 .7.1 1.5.3 2.2.2.6.5 1.2.9 1.7.3.5.8.9 1.4 1.1.6.3 1.2.4 1.8.4.7 0 1.4-.2 2-.5.5-.3 1-.7 1.3-1.2s.6-1.1.7-1.7c.1-.7.2-1.3.2-2s-.1-1.4-.3-2c0-.7-.2-1.3-.6-1.9M73.9 21.1c-.6-.8-1.6-1.3-2.7-1.3-1.3-.1-2.6.7-3 2-.4.9-.5 1.9-.5 2.8 0 1.8.5 3 1.5 3.7.5.5 1.3.7 2 .7 1 .1 2-.5 2.5-1.3.7-1 1-2.3.8-3.5.1-1.1-.1-2.2-.6-3.1m3-2.8c1.3 1.7 1.9 3.7 1.8 5.8.1 2.2-.5 4.4-1.8 6.2-1.2 1.4-2.9 2.2-4.7 2.2-1.1 0-2.1-.3-3-.8-.5-.4-1-.9-1.3-1.5V38h-4V16.6h3.8v2.3c.4-.6.8-1.1 1.3-1.5.9-.8 2.1-1.2 3.3-1.2 1.8.1 3.4.8 4.6 2.1M92.4 27.8c.7-1 1.1-2.3 1-3.5.1-1.2-.3-2.5-1-3.5-1.4-1.5-3.7-1.6-5.1-.2l-.2.2c-.7 1-1.1 2.3-1 3.5-.1 1.2.3 2.5 1 3.5.6.8 1.6 1.2 2.7 1.2 1 .1 2-.4 2.6-1.2m3.2 2.3c-1.3 1.7-3.3 2.3-5.8 2.3-2.7 0-4.7-.8-5.8-2.3-1.3-1.6-2-3.6-2-5.7-.1-2.1.7-4.1 2-5.7 1.4-1.7 3.6-2.6 5.8-2.5 2.7 0 4.7.8 5.8 2.5 2.6 3.4 2.6 8.1 0 11.4M105.1 11.3h-4V32h4zM118.4 24.4c-.3.2-.5.3-.8.3-.3.2-.7.2-1 .3l-1 .2c-.6.1-1.2.3-1.8.5-.6.3-1 1-1 1.7 0 .5.1 1.1.5 1.5.4.3.8.5 1.3.5.9 0 1.8-.3 2.5-.8.8-.7 1.2-1.8 1.2-2.8v-1.3h.1zm-2.5-1.8c.6-.1 1.1-.2 1.7-.3.5-.2.8-.6.8-1.2.1-.5-.2-1.1-.7-1.3-.6-.2-1.3-.3-2-.3-1 0-1.7.2-2 .7-.3.4-.5.8-.5 1.3h-3.8q.15-1.8 1.2-3.3c1-1.2 2.8-1.8 5.3-1.8 1.6 0 3.1.3 4.5 1 1.3.7 2 1.8 2 3.8V30c0 .3.1.7.2 1 .2.2.4.4.7.5v.7H119c-.2-.3-.2-.7-.3-.8 0-.3-.2-.5-.2-1-.5.7-1.2 1.2-2 1.5-.9.5-2 .7-3 .7-1.3 0-2.5-.4-3.5-1.2-.9-.9-1.4-2.1-1.3-3.3-.1-1.6.7-3.2 2.2-4 1.1-.6 2.3-.9 3.5-1zM135.4 16.3h.3v4.2h-1.2c-1.7 0-2.7.5-3.2 1.5-.4.8-.5 1.7-.5 2.7V32h-4V16.6h3.8v2.7c.5-.8 1-1.5 1.7-2.2.8-.7 1.9-1.1 3-1zM141.4 27.1c.1.5.3 1 .5 1.5.8.6 1.8.9 2.8.8q.9 0 1.8-.3c.4-.1.7-.6.7-1 .1-.4-.1-.8-.5-1q-1.95-.75-4.2-1.2c-1.3-.3-2.6-.9-3.7-1.7-.7-.7-1.1-1.7-1-2.7 0-1.4.6-2.8 1.7-3.7 1-1.2 2.5-1.7 4.7-1.7 1.6-.1 3.3.3 4.7 1.2 1.3.9 2 2.4 2 4h-4c0-.4-.1-.9-.5-1.2-.6-.6-1.5-.9-2.3-.8q-.9 0-1.8.3c-.3.3-.5.6-.5 1-.1.5.2.9.7 1q1.95.75 4.2 1.2c1.3.2 2.6.8 3.7 1.7.8.7 1.2 1.8 1.2 2.8.1 1.4-.6 2.8-1.7 3.7-1.5 1.1-3.3 1.6-5.2 1.5-1.9.1-3.8-.4-5.3-1.5-1.1-1-1.7-2.4-1.7-3.8h3.8v-.1zM153.2 19.6v-2.8h2.2v-4.2h4v4.3h2.5v2.7h-2.5v8c0 .7 0 1 .2 1.2s.7.2 1.5.2h.7v3H160c-1.8 0-3.2-.3-3.8-1-.5-.6-.8-1.4-.7-2.2v-9.2zM169 20.4c-.6.6-1 1.5-1 2.3h6.8c0-.9-.4-1.7-1-2.3s-1.5-.9-2.3-.8c-.9-.1-1.8.2-2.5.8m6-3.5c1.1.5 2 1.3 2.7 2.3.7.9 1.1 2 1.2 3.2.2 1 .2 2 .2 3h-11.2c-.1 1.3.5 2.5 1.7 3.2.7.3 1.4.5 2.2.5.8.1 1.6-.2 2.2-.7.3-.3.6-.6.8-1h4.2c-.3 1-.8 2-1.5 2.8-1.3 1.5-3.3 2.2-5.8 2.2-1.9 0-3.8-.6-5.3-1.8-1.5-1.3-2.3-3.3-2.3-6.2-.2-2.3.6-4.5 2.2-6.2 1.5-1.4 3.5-2.1 5.5-2 .9 0 2.1.2 3.2.7M190.6 16.3h.4v4.2h-1.2c-1.7 0-2.7.5-3.2 1.5-.4.8-.5 1.7-.5 2.7V32h-4V16.6h3.8v2.7c.5-.8 1-1.5 1.7-2.2.8-.6 1.8-.9 2.8-.8zM205.6 17.6c1.1 1 1.6 2.5 1.5 4v10.3H203v-9.3c0-.6-.1-1.3-.3-1.8-.3-.8-1-1.2-2.2-1.2-1.2-.1-2.3.6-2.8 1.7-.3.7-.4 1.5-.3 2.3v8.3h-4V16.6h3.8v2.2c.4-.7.9-1.2 1.5-1.7 2.2-1.3 5-1.1 6.9.5"/></g><defs><clipPath id="a"><path fill="#fff" d="M0 0h207.1v51H0z"/></clipPath></defs></svg>
