<?xml version="1.0" encoding="utf-8"?>
<svg
  width="100"
  height="100"
  viewBox="0 0 100 100"
  fill="none"
  version="1.2"
  baseProfile="tiny-ps"
  xmlns="http://www.w3.org/2000/svg"
>
  <title>Polarstern Energie</title>
  <desc>Logo von Polarstern Energie</desc>
  <rect width="100" height="100" fill="white" />
  <path
    d="M49.9963 1.88672C23.4302 1.88672 1.89062 23.4245 1.89062 50.0037C1.89062 76.5829 23.4302 98.1131 49.9963 98.1131C76.5623 98.1131 98.117 76.5735 98.117 50.0037C98.117 23.4339 76.5699 1.88672 49.9963 1.88672ZM66.468 53.5301C65.9887 55.3229 65.187 57.0133 64.1019 58.5188C63.0433 59.9589 61.6734 61.1417 60.0944 61.9792C58.4793 62.8433 56.5762 63.276 54.385 63.2773C53.4182 63.2762 52.4535 63.1897 51.5019 63.0188C50.5506 62.8485 49.6224 62.568 48.7359 62.1829C47.8564 61.8038 47.0315 61.3088 46.2831 60.7112C45.5407 60.1246 44.9066 59.4126 44.4095 58.6075H44.2925V73.4867H36.9661V32.6546H43.9472V36.6905H44.0642C44.9862 34.9609 46.2736 33.7207 47.9265 32.9697C49.6128 32.2136 51.4426 31.8306 53.2906 31.8471C55.6353 31.8471 57.6825 32.2603 59.4321 33.0867C61.1271 33.8688 62.6177 35.0333 63.7869 36.4886C64.9391 37.9301 65.8038 39.6119 66.3812 41.5339C66.9573 43.4584 67.2453 45.515 67.2453 47.7037C67.2453 49.7037 66.9862 51.6471 66.468 53.5301Z"
    fill="#2C2B27"
  />
  <path
    d="M52.4222 57.5078C51.177 57.5078 50.0732 57.2587 49.1468 56.7662C48.1981 56.2679 47.3665 55.5732 46.7071 54.7285C45.9935 53.8018 45.4703 52.7431 45.1675 51.6134C44.8072 50.3033 44.63 48.9495 44.6411 47.5908C44.6411 44.5398 45.3109 42.0738 46.6336 40.2625C47.9317 38.4813 49.826 37.6172 52.4222 37.6172C53.6581 37.6172 54.7638 37.8927 55.7072 38.4342C56.6656 38.9851 57.477 39.7228 58.1185 40.6285C58.7675 41.5493 59.2619 42.6247 59.5883 43.821C59.9185 45.0323 60.0845 46.3002 60.0845 47.5889C60.0845 48.8474 59.9449 50.0927 59.6675 51.2927C59.4209 52.4182 58.9617 53.4864 58.3147 54.4398C57.6921 55.3455 56.8902 56.0945 55.9317 56.6625C54.9883 57.221 53.8072 57.5078 52.4222 57.5078Z"
    fill="#2C2B27"
  />
</svg>
