<?xml version="1.0" encoding="utf-8"?>
<!-- Generator: Adobe Illustrator 22.0.1, SVG Export Plug-In . SVG Version: 6.00 Build 0)  -->
<svg version="1.1" xmlns="http://www.w3.org/2000/svg" xmlns:xlink="http://www.w3.org/1999/xlink" x="0px" y="0px"
	 viewBox="0 0 30.615 30.856" style="enable-background:new 0 0 30.615 30.856;" xml:space="preserve">
<style type="text/css">
	.st0{fill:#141412;}
</style>
<g id="Icons">
	<g>
		<path d="M27.428,20.729l1.843-5.324H18.28c-0.24,0.35-0.505,0.681-0.782,1h4.375l-1.322,3.817h-5.068l0.953-2.753
			c-0.446,0.391-0.922,0.745-1.426,1.061l-0.586,1.692l-6.124-0.003L4.617,30.856h19.305l2.957-8.541l2.688,8.541h1.049
			L27.428,20.729z M15.137,21.222h5.068l-1.321,3.817h-5.068L15.137,21.222z M9.01,21.222h5.069l-1.322,3.817H7.688L9.01,21.222z
			 M6.021,29.856l1.321-3.817h5.068l-1.322,3.817H6.021z M12.148,29.856l1.322-3.817h5.068l-1.322,3.817H12.148z M23.21,29.856
			h-4.935l1.322-3.817h4.935L23.21,29.856z M24.877,25.04h-4.935l1.321-3.817h4.935L24.877,25.04z M26.545,20.222H21.61l1.322-3.817
			h4.935L26.545,20.222z"/>
		<g>
			<path d="M8.225,5.649L6.093,0.503L5.169,0.886l2.132,5.147C7.587,5.864,7.895,5.734,8.225,5.649z"/>
			<path d="M9.622,5.573V0h-1v5.573c0.165-0.023,0.329-0.05,0.5-0.05C9.293,5.522,9.457,5.549,9.622,5.573z"/>
			<path d="M6.033,7.302L0.886,5.169L0.503,6.093l5.146,2.132C5.734,7.896,5.864,7.587,6.033,7.302z"/>
			<path d="M12.596,8.225l5.146-2.132l-0.383-0.924l-5.147,2.132C12.38,7.587,12.511,7.896,12.596,8.225z"/>
			<path d="M5.522,9.123c0-0.171,0.027-0.335,0.051-0.5H0v1h5.573C5.55,9.458,5.522,9.293,5.522,9.123z"/>
			<path d="M11.988,6.964l3.939-3.939l-0.707-0.707l-3.939,3.939C11.548,6.459,11.785,6.696,11.988,6.964z"/>
			<path d="M13.075,0.886l-0.924-0.383L10.02,5.649c0.329,0.085,0.638,0.215,0.923,0.384L13.075,0.886z"/>
			<path d="M6.964,6.257L3.025,2.318L2.318,3.025l3.938,3.939C6.459,6.696,6.696,6.459,6.964,6.257z"/>
			<path d="M5.649,10.02l-5.146,2.131l0.383,0.924l5.147-2.132C5.864,10.658,5.734,10.349,5.649,10.02z"/>
			<path d="M10.02,12.596l2.132,5.146l0.924-0.383l-2.132-5.147C10.657,12.38,10.349,12.511,10.02,12.596z"/>
			<path d="M11.281,11.988l3.939,3.938l0.707-0.707l-3.939-3.938C11.785,11.548,11.548,11.786,11.281,11.988z"/>
			<path d="M12.672,8.623c0.023,0.165,0.05,0.329,0.05,0.5c0,0.171-0.027,0.335-0.05,0.5h5.573v-1H12.672z"/>
			<path d="M12.211,10.943l5.147,2.132l0.383-0.924l-5.146-2.131C12.511,10.349,12.38,10.658,12.211,10.943z"/>
			<path d="M8.622,12.672v5.573h1v-5.573c-0.165,0.023-0.329,0.05-0.5,0.05C8.951,12.722,8.787,12.695,8.622,12.672z"/>
			<path d="M6.257,11.281l-3.939,3.938l0.707,0.707l3.938-3.939C6.696,11.786,6.459,11.548,6.257,11.281z"/>
			<path d="M5.169,17.359l0.924,0.383l2.131-5.146c-0.329-0.085-0.638-0.215-0.923-0.384L5.169,17.359z"/>
			<path d="M9.122,6.222c-1.599,0-2.9,1.301-2.9,2.9c0,1.599,1.301,2.9,2.9,2.9s2.9-1.301,2.9-2.9
				C12.022,7.523,10.721,6.222,9.122,6.222z M9.122,11.022c-1.048,0-1.9-0.853-1.9-1.9c0-1.048,0.852-1.9,1.9-1.9s1.9,0.853,1.9,1.9
				C11.022,10.17,10.17,11.022,9.122,11.022z"/>
		</g>
	</g>
</g>
<g id="Info">
</g>
</svg>
